<svg height="512" viewBox="0 0 192 192" width="512" xmlns="http://www.w3.org/2000/svg" xmlns:xlink="http://www.w3.org/1999/xlink"><linearGradient id="New_Gradient_Swatch_1" gradientUnits="userSpaceOnUse" x1="35.248" x2="159.79" y1="151.098" y2="26.556"><stop offset="0" stop-color="#34cdfa"/><stop offset="1" stop-color="#e8d9f1"/></linearGradient><path d="m166.2 58.6a32.016 32.016 0 0 0 -40.883-40.767 47.988 47.988 0 0 0 -85.317 30.167 40.009 40.009 0 0 0 -15.764 76.777 48 48 0 0 0 79.8 30.967 32.021 32.021 0 0 0 46.955-19.757c.336.009.673.013 1.009.013a40.005 40.005 0 0 0 14.2-77.4z" fill="url(#New_Gradient_Swatch_1)"/><g fill="#fff"><path d="m96 120h-24a8 8 0 0 1 -6.656-12.437l7.708-11.563h-9.052v-16h24a8 8 0 0 1 6.656 12.438l-7.708 11.562h9.052z"/><path d="m136 96h-24a8 8 0 0 1 -6.656-12.437l7.708-11.563h-9.052v-16h24a8 8 0 0 1 6.656 12.438l-7.708 11.562h9.052z"/></g></svg>